<?xml version="1.0" encoding="UTF-8"?>
<svg width="272px" height="42px" viewBox="0 0 272 42" version="1.1" xmlns="http://www.w3.org/2000/svg" xmlns:xlink="http://www.w3.org/1999/xlink">
    <!-- Generator: Sketch 46.2 (44496) - http://www.bohemiancoding.com/sketch -->
    <title>Group</title>
    <desc>Created with Sketch.</desc>
    <defs></defs>
    <g id="Page-1" stroke="none" stroke-width="1" fill="none" fill-rule="evenodd">
        <g id="Group">
            <polygon id="Shape" fill="#FFFFFF" points="25.79 0 0 41.09 246 41.09 271.8 0"></polygon>
            <path d="M95.32,0.09 L95.32,31.25 L89.08,31.25 L89.08,28.56 C88.3079803,29.6336881 87.3183096,30.4769991 86.15,30.98 C83.585515,32.1475553 80.6368188,32.1256047 78.09,30.92 C76.9032478,30.3364671 75.8509343,29.5123252 75,28.5 C74.1444117,27.4615259 73.4929621,26.2705945 73.08,24.99 C72.6295003,23.6564871 72.4031001,22.2575365 72.41,20.85 C72.4048009,19.4442199 72.6381105,18.0477435 73.1,16.72 C73.5410302,15.4501861 74.2197809,14.2759474 75.1,13.26 C76.8640853,11.1694458 79.474998,9.98333499 82.21,10.03 C83.5496776,9.98742374 84.8781181,10.2868391 86.07,10.9 C86.997485,11.3758274 87.8283006,12.0201334 88.52,12.8 L88.54,0.09 L25.79,0 L0,41.09 L159.87,41.18 L159.87,10.6 L166.31,10.6 L166.31,13.13 C167.152012,12.2334113 168.050605,11.4947951 169.07,10.96 C170.301622,10.3123846 171.679006,9.99214284 173.07,10.03 C174.478064,10.0100613 175.872548,10.3074145 177.15,10.9 C178.337014,11.4564818 179.39075,12.2612763 180.24,13.26 C181.11611,14.278869 181.794387,15.4522885 182.24,16.72 C182.693886,18.0494923 182.923683,19.4451695 182.92,20.85 C182.925427,22.2566186 182.70253,23.6547949 182.26,24.99 C181.843575,26.2711561 181.188748,27.4620589 180.33,28.5 C179.477602,29.5149214 178.42145,30.3394016 177.23,30.92 C175.934546,31.5483023 174.509589,31.863437 173.07,31.84 C171.825443,31.8444994 170.594406,31.5819237 169.46,31.07 C168.399202,30.6243427 167.479681,29.8984052 166.8,28.97 L166.72,41.18 L246,41.09 L271.8,0 L95.32,0.09 Z M35.1,24.64 C35.5165514,25.1332788 36.0306614,25.5350337 36.61,25.82 C37.2393607,26.0991037 37.9215862,26.2389599 38.61,26.23 C39.2947027,26.2214029 39.9722314,26.0892848 40.61,25.84 C41.2431617,25.6080926 41.8049561,25.2151812 42.24,24.7 L46.01,29.3 C45.0629755,30.1825047 43.9327225,30.844949 42.7,31.24 C41.3136619,31.7180652 39.8564289,31.9581198 38.39,31.95 C36.8382676,31.9629568 35.2958401,31.709268 33.83,31.2 C31.0815693,30.2800947 28.8555442,28.2322971 27.71,25.57 C27.0980408,24.1148267 26.7949744,22.548416 26.82,20.97 C26.7978359,19.408017 27.1009263,17.8585101 27.71,16.42 C28.2779008,15.1092522 29.112239,13.9309624 30.16,12.96 C31.2227314,11.9870484 32.4710201,11.2387554 33.83,10.76 C35.2802113,10.2416191 36.809951,9.98102184 38.35,9.99 C39.0949586,9.99000425 39.8382543,10.060316 40.57,10.2 C41.2853113,10.3381979 41.9902996,10.5253038 42.68,10.76 C43.3275076,10.9871339 43.9506214,11.2785903 44.54,11.63 C45.0726639,11.9515433 45.5659983,12.3341292 46.01,12.77 L42.08,17.33 C41.6553833,16.8109479 41.1139647,16.3997439 40.5,16.13 C39.8728131,15.8397949 39.1910438,15.6863968 38.5,15.68 C37.8285545,15.6691553 37.1639784,15.8164582 36.56,16.11 C35.9902681,16.3923557 35.483461,16.786917 35.07,17.27 C34.6368581,17.7642249 34.2979295,18.3336249 34.07,18.95 C33.8380459,19.5912753 33.7196079,20.2680641 33.72,20.95 C33.7331927,21.6365546 33.8616475,22.316013 34.1,22.96 C34.3160897,23.5819577 34.6563059,24.1535211 35.1,24.64 Z M66.39,28.91 C65.3290164,29.8724728 64.0933932,30.6226726 62.75,31.12 C59.8974631,32.1733166 56.7625369,32.1733166 53.91,31.12 C52.5613068,30.6274663 51.3215303,29.8768072 50.26,28.91 C49.2109529,27.930167 48.3737442,26.745823 47.8,25.43 C47.1768057,23.9846741 46.8666724,22.4237833 46.89,20.85 C46.8649306,19.2825209 47.175195,17.7277893 47.8,16.29 C48.3717025,14.9846516 49.2095685,13.8130015 50.26,12.85 C51.3245105,11.9017432 52.5645482,11.17131 53.91,10.7 C56.7718349,9.70005797 59.8881651,9.70005797 62.75,10.7 C64.0901825,11.1761802 65.3260478,11.9061556 66.39,12.85 C67.4525977,13.8088735 68.3010556,14.9810402 68.88,16.29 C69.504805,17.7277893 69.8150694,19.2825209 69.79,20.85 C69.8133276,22.4237833 69.5031943,23.9846741 68.88,25.43 C68.2991792,26.7494795 67.4513737,27.9343643 66.39,28.91 Z M119.8,22 C119.815447,22.2597706 119.815447,22.5202294 119.8,22.78 L104.8,22.78 C104.849325,23.3428198 105.02723,23.8867976 105.32,24.37 C105.613835,24.845901 105.993628,25.2629948 106.44,25.6 C106.902548,25.951422 107.419338,26.2250165 107.97,26.41 C108.535781,26.6065428 109.131071,26.7046303 109.73,26.7 C110.678859,26.7292498 111.620199,26.523117 112.47,26.1 C113.18504,25.7260778 113.807002,25.1963845 114.29,24.55 L119.01,27.55 C118.043431,28.9507023 116.721535,30.0689646 115.18,30.79 C113.445883,31.5811245 111.555617,31.9707995 109.65,31.93 C108.155585,31.9408084 106.670496,31.6938573 105.26,31.2 C103.924397,30.7457712 102.693457,30.0282898 101.64,29.09 C100.589714,28.1391541 99.7573743,26.9725136 99.2,25.67 C98.0338097,22.7107492 98.0338097,19.4192508 99.2,16.46 C99.7366992,15.148824 100.540407,13.9636961 101.56,12.98 C102.575929,12.0157242 103.772095,11.2613239 105.08,10.76 C106.485429,10.2276883 107.977175,9.95985215 109.48,9.97 C110.909903,9.95526894 112.329204,10.2167192 113.66,10.74 C114.900772,11.2298808 116.020022,11.9840094 116.94,12.95 C117.880163,13.9676489 118.6047,15.1650051 119.07,16.47 C119.604689,17.9851838 119.865422,19.5834422 119.84,21.19 L119.8,22 Z M156.3,31.25 L149.54,31.25 L149.54,19.98 C149.543028,19.4206924 149.499545,18.8621014 149.41,18.31 C149.346607,17.8229693 149.194063,17.3517776 148.96,16.92 C148.747386,16.5392561 148.441035,16.2191361 148.07,15.99 C147.623925,15.7342162 147.11348,15.6126816 146.6,15.64 C146.072585,15.625607 145.551015,15.7534089 145.09,16.01 C144.661496,16.2607384 144.292911,16.6020208 144.01,17.01 C143.713404,17.4448586 143.496682,17.9290962 143.37,18.44 C143.228922,18.9888063 143.158354,19.5533532 143.16,20.12 L143.16,31.26 L136.38,31.26 L136.38,19.49 C136.430957,18.5014325 136.187335,17.5199843 135.68,16.67 C135.156915,15.971217 134.309465,15.5928915 133.44,15.67 C132.43706,15.6283619 131.48525,16.1137471 130.93,16.95 C130.315179,17.882907 130.004278,18.9832887 130.04,20.1 L130.04,31.28 L123.22,31.28 L123.22,10.62 L129.78,10.62 L129.78,13.48 L129.88,13.48 C130.13315,13.0117423 130.445737,12.5781533 130.81,12.19 C131.199451,11.7587073 131.651093,11.3879564 132.15,11.09 C132.700665,10.7578484 133.292329,10.4989951 133.91,10.32 C134.602562,10.1223689 135.319811,10.0247153 136.04,10.03 C137.362257,9.98623019 138.671763,10.3006499 139.83,10.94 C140.875501,11.5579133 141.716876,12.4688225 142.25,13.56 C142.915845,12.5017025 143.824261,11.6172819 144.9,10.98 C146.101634,10.3179983 147.458662,9.98996345 148.83,10.03 C150.054653,9.98713358 151.27086,10.24824 152.37,10.79 C153.277745,11.2705791 154.061626,11.9551914 154.66,12.79 C155.243868,13.6199873 155.674021,14.5480348 155.93,15.53 C156.187422,16.5092729 156.318486,17.517459 156.32,18.53 L156.3,31.25 Z M237.29,11.48 C237.667298,11.119036 238.108024,10.8308685 238.59,10.63 C239.088484,10.4265171 239.621586,10.321255 240.16,10.32 C240.68541,10.3218452 241.205309,10.4271842 241.69,10.63 C242.164834,10.8241532 242.599016,11.1056925 242.97,11.46 C243.337377,11.8171049 243.632729,12.2414617 243.84,12.71 C244.060957,13.1966697 244.173554,13.7255312 244.17,14.26 C244.193145,15.3187463 243.763951,16.3371728 242.99,17.06 C242.23932,17.8065747 241.218574,18.2177585 240.16,18.2 C239.629636,18.2023039 239.103656,18.1038948 238.61,17.91 C238.132489,17.7210026 237.697369,17.4388549 237.33,17.08 C236.960259,16.7243467 236.658636,16.3041082 236.44,15.84 C236.217048,15.3575273 236.10432,14.8314653 236.11,14.3 C236.104431,13.7673985 236.210013,13.2394905 236.42,12.75 C236.622266,12.2728085 236.918088,11.8409772 237.29,11.48 Z M192.78,31.25 L186,31.25 L186,10.62 L192.78,10.62 L192.78,31.25 Z M192.12,6.68 C191.759029,7.01768792 191.338595,7.28554523 190.88,7.47 C190.399459,7.66102708 189.887118,7.75942372 189.37,7.76 C188.335399,7.78583401 187.335018,7.38857073 186.6,6.66 C185.880873,5.97963838 185.478503,5.02990076 185.49,4.04 C185.48627,3.5493588 185.581501,3.06300189 185.77,2.61 C185.961977,2.16343899 186.244612,1.7616195 186.6,1.43 C186.964514,1.09434663 187.383937,0.823751195 187.84,0.63 C188.322149,0.419029648 188.843757,0.313344346 189.37,0.32 C190.390662,0.306976365 191.376545,0.690574347 192.12,1.39 C192.468418,1.72545784 192.747092,2.12647648 192.94,2.57 C193.367132,3.49996663 193.367132,4.57003337 192.94,5.5 C192.747092,5.94352352 192.468418,6.34454216 192.12,6.68 Z M210.35,16.17 C210.059069,16.0886034 209.761064,16.0350294 209.46,16.01 C209.176858,15.9952872 208.893142,15.9952872 208.61,16.01 C207.817992,15.9825941 207.031445,16.1508947 206.32,16.5 C205.743568,16.7893651 205.235575,17.1984876 204.83,17.7 C204.458109,18.1529259 204.182493,18.6769364 204.02,19.24 C203.865616,19.7083599 203.781371,20.1969827 203.77,20.69 L203.77,31.29 L196.99,31.29 L196.99,10.62 L203.54,10.62 L203.54,13.62 L203.63,13.62 C204.144919,12.5833739 204.915923,11.6953421 205.87,11.04 C206.857235,10.3700433 208.027059,10.0208419 209.22,10.04 C209.489779,10.0245643 209.760221,10.0245643 210.03,10.04 C210.248077,10.0614624 210.46288,10.1084507 210.67,10.18 L210.35,16.17 Z M233.73,22 C233.73,22.2666667 233.73,22.5266667 233.73,22.78 L218.73,22.78 C218.771163,23.343011 218.945999,23.8880882 219.24,24.37 C219.536712,24.843725 219.916063,25.2603333 220.36,25.6 C220.822548,25.951422 221.339338,26.2250165 221.89,26.41 C222.455975,26.6057805 223.051132,26.7038462 223.65,26.7 C224.598859,26.7292498 225.540199,26.523117 226.39,26.1 C227.10504,25.7260778 227.727002,25.1963845 228.21,24.55 L232.93,27.55 C231.965968,28.9529995 230.64338,30.0718472 229.1,30.79 C227.365883,31.5811245 225.475617,31.9707995 223.57,31.93 C222.075585,31.9408084 220.590496,31.6938573 219.18,31.2 C217.844397,30.7457712 216.613457,30.0282898 215.56,29.09 C214.509482,28.1415657 213.679962,26.9740924 213.13,25.67 C212.510568,24.2030599 212.207309,22.6220239 212.24,21.03 C212.21732,19.4634508 212.513313,17.9086392 213.11,16.46 C213.650269,15.1507415 214.453509,13.9663032 215.47,12.98 C216.489526,12.0154476 217.68901,11.2610976 219,10.76 C220.401732,10.2268916 221.890354,9.95900746 223.39,9.97 C224.823067,9.95623003 226.245461,10.2176245 227.58,10.74 C228.81779,11.2300152 229.933748,11.9842248 230.85,12.95 C231.789826,13.9697171 232.517292,15.1662962 232.99,16.47 C233.521081,17.9858534 233.778419,19.5840575 233.75,21.19 L233.73,22 Z M240.21,36.38 L234.54,36.38 L237.65,24.62 L244.28,24.62 L240.21,36.38 Z M107.64,14.96 C108.22264,14.746369 108.839491,14.6413009 109.46,14.65 C110.606559,14.5565133 111.73528,14.9779513 112.54,15.8 C113.206565,16.5666364 113.563147,17.55437 113.54,18.57 L104.76,18.57 C104.789947,18.0423471 104.933195,17.5273347 105.18,17.06 C105.431508,16.5810965 105.770721,16.1536883 106.18,15.8 C106.610416,15.4319567 107.105491,15.1471195 107.64,14.96 Z M223.4,14.65 C224.543371,14.5581446 225.668368,14.9795602 226.47,15.8 C227.143472,16.5625615 227.501065,17.5530932 227.47,18.57 L218.71,18.57 C218.731651,18.0422814 218.871779,17.5261996 219.12,17.06 C219.368826,16.5793557 219.708416,16.1514717 220.12,15.8 C220.546751,15.4320692 221.038535,15.1471741 221.57,14.96 C222.155845,14.7453816 222.776156,14.6403016 223.4,14.65 Z M60.42,16.05 C61.0034058,16.337658 61.523558,16.7388211 61.95,17.23 C62.3681463,17.7262159 62.6902971,18.2959143 62.9,18.91 C63.1185695,19.5334417 63.2301424,20.1893548 63.23,20.85 C63.2320156,21.5124268 63.1273423,22.1708558 62.92,22.8 C62.7150217,23.4241928 62.4000634,24.0066962 61.99,24.52 C61.5736241,25.0319172 61.0517661,25.4480394 60.46,25.74 C59.120755,26.3397908 57.589245,26.3397908 56.25,25.74 C55.6582339,25.4480394 55.1363759,25.0319172 54.72,24.52 C54.3099366,24.0066962 53.9949783,23.4241928 53.79,22.8 C53.3768992,21.5362354 53.3768992,20.1737646 53.79,18.91 C53.9858899,18.2981418 54.2945338,17.7283377 54.7,17.23 C56.1091132,15.5692105 58.4686764,15.0824475 60.42,16.05 Z M169.31,25.73 C168.713601,25.44058 168.182717,25.0322075 167.75,24.53 C167.316142,24.0213278 166.977406,23.4387019 166.75,22.81 C166.516261,22.186544 166.397671,21.5258271 166.4,20.86 C166.39587,20.194017 166.514519,19.5329759 166.75,18.91 C166.979455,18.2852863 167.318047,17.7062938 167.75,17.2 C168.182717,16.6977925 168.713601,16.28942 169.31,16 C169.956782,15.6831405 170.66992,15.5254274 171.39,15.54 C172.789101,15.5071375 174.127687,16.1102366 175.03,17.18 C175.437267,17.6771307 175.746105,18.2472931 175.94,18.86 C176.149897,19.4887949 176.257926,20.1471008 176.26,20.81 C176.26,21.4894126 176.151985,22.1645051 175.94,22.81 C175.748495,23.4358575 175.439672,24.0195681 175.03,24.53 C174.618504,25.0376814 174.099321,25.4475631 173.51,25.73 C172.849733,26.0490559 172.123123,26.2067164 171.39,26.19 C170.66992,26.2045726 169.956782,26.0468595 169.31,25.73 Z M85.98,16.02 C86.5763992,16.30942 87.1072835,16.7177925 87.54,17.22 C87.970977,17.7327004 88.3063068,18.3186806 88.53,18.95 C88.7654813,19.5729759 88.8841297,20.234017 88.88,20.9 C88.8774983,22.2365753 88.4029088,23.5293002 87.54,24.55 C87.1072835,25.0522075 86.5763992,25.46058 85.98,25.75 C85.3372799,26.0682694 84.6270253,26.2261037 83.91,26.21 C82.5066683,26.2423651 81.1656737,25.6308126 80.27,24.55 C79.8462556,24.0443 79.5267847,23.4597361 79.33,22.83 C79.1261421,22.1828411 79.0216201,21.5085057 79.02,20.83 C79.0235862,20.1680191 79.1281216,19.5104576 79.33,18.88 C79.531552,18.2643976 79.8508016,17.693824 80.27,17.2 C80.6937701,16.705998 81.2145425,16.3043565 81.8,16.02 C82.456612,15.7006704 83.1800548,15.5429531 83.91,15.56 C84.6270253,15.5438963 85.3372799,15.7017306 85.98,16.02 Z" id="codempire_logo-copy-2" fill="#000000" fill-rule="nonzero"></path>
        </g>
    </g>
</svg>